<svg id="Group_10909" data-name="Group 10909" xmlns="http://www.w3.org/2000/svg" width="21" height="21" viewBox="0 0 21 21">
  <circle id="Ellipse_1652" data-name="Ellipse 1652" cx="10.5" cy="10.5" r="10.5" fill="#ff5000"/>
  <g id="noun-house-1745674" transform="translate(-122.857 -96.772)">
    <path id="Path_37262" data-name="Path 37262" d="M133.168,100.8a.384.384,0,0,1,.213.073l6.8,5.37a.371.371,0,0,1,.062.509.376.376,0,0,1-.509.056l-6.579-5.191-6.579,5.191a.36.36,0,0,1-.448-.565l2.551-2.014v-3.071h0a.358.358,0,0,1,.358-.358h1.432a.358.358,0,0,1,.358.358v1.376l2.1-1.662a.409.409,0,0,1,.235-.073Zm-3.054.716H129.4v2.148l.716-.565Zm7.519,4.1.716.565V111.9h0a.358.358,0,0,1-.358.358h-3.4a.358.358,0,0,1-.358-.358v-2.148a1.074,1.074,0,0,0-2.148,0V111.9h0a.358.358,0,0,1-.358.358h-3.4a.358.358,0,0,1-.358-.358v-5.717l.716-.565v5.924h2.685v-1.79a1.79,1.79,0,0,1,3.58,0v1.79h2.685Z" transform="translate(0 0)" fill="#fff"/>
  </g>
</svg>
