<svg xmlns="http://www.w3.org/2000/svg" width="12.977" height="17.668" viewBox="0 0 12.977 17.668">
  <g id="Group_10876" data-name="Group 10876" transform="translate(0.5 0.5)">
    <path id="Path_36571" data-name="Path 36571" d="M4.161,3.016,2.485,1.341.809,3.016a.473.473,0,0,1-.668,0h0a.473.473,0,0,1,0-.668h0L1.815.67A7.866,7.866,0,0,0,2.485,0c.06.1.724.727.67.67L4.831,2.346a.473.473,0,0,1,0,.668h0a.473.473,0,0,1-.668,0Z" transform="translate(8.646 12.049) rotate(180)" fill="#aaa"/>
    <path id="Path_37255" data-name="Path 37255" d="M0,3.961V0" transform="translate(6.156 6.234)" fill="#aaa" stroke="#aaa" stroke-linecap="round" stroke-width="1"/>
    <path id="Path_37254" data-name="Path 37254" d="M-17400.668-4782.333h8.74l3.236,3.075v13.594h-11.977Z" transform="translate(17400.668 4782.333)" fill="none" stroke="#aaa" stroke-linecap="round" stroke-linejoin="round" stroke-width="1"/>
  </g>
</svg>
