<svg xmlns="http://www.w3.org/2000/svg" width="13.252" height="12.11" viewBox="0 0 13.252 12.11">
  <g id="Group_10166" data-name="Group 10166" transform="translate(-549.761 -5151.22)">
    <path id="Path_9447" data-name="Path 9447" d="M96.926,41.146,92.84,37.06a1.133,1.133,0,0,0-1.576.014l-6.931,6.931a1.111,1.111,0,0,0,0,1.59L87.4,48.663a.664.664,0,0,0,.474.2H95.35a.67.67,0,0,0,.669-.669.679.679,0,0,0-.669-.669H92.142l4.783-4.8a1.12,1.12,0,0,0,0-1.576ZM88.154,47.52,85.434,44.8l2.831-2.831,3.751,3.751-1.785,1.8Zm4.825-2.747-3.765-3.751,2.845-2.845,3.751,3.751Z" transform="translate(465.763 5114.472)" fill="#828282"/>
  </g>
</svg>
