<svg xmlns="http://www.w3.org/2000/svg" width="19.838" height="17.975" viewBox="0 0 19.838 17.975">
  <g id="noun-house-1745674" transform="translate(-125.998 -100.797)">
    <path id="Path_37262" data-name="Path 37262" d="M135.93,100.8a.493.493,0,0,1,.294.114l9.423,8.426a.636.636,0,0,1,.085.8.479.479,0,0,1-.705.088l-9.113-8.145-9.113,8.145a.472.472,0,0,1-.7-.088.631.631,0,0,1,.078-.8l3.534-3.16v-4.819h0a.532.532,0,0,1,.5-.562h1.984a.532.532,0,0,1,.5.562v2.159l2.914-2.607a.521.521,0,0,1,.326-.114Zm-4.231,1.123h-.992v3.37l.992-.886Zm10.415,6.433.992.887v8.97h0a.532.532,0,0,1-.5.562H137.9a.532.532,0,0,1-.5-.562v-3.37a1.5,1.5,0,1,0-2.976,0v3.37h0a.532.532,0,0,1-.5.562h-4.712a.532.532,0,0,1-.5-.562v-8.97l.992-.887v9.295h3.72V114.84a2.5,2.5,0,1,1,4.959,0v2.809h3.72Z" transform="translate(0 0)" fill="#ff5000"/>
  </g>
</svg>
